<?xml version="1.0" encoding="UTF-8" standalone="no"?>
<svg width="43px" height="56px" viewBox="0 0 43 56" version="1.1" xmlns="http://www.w3.org/2000/svg" xmlns:xlink="http://www.w3.org/1999/xlink">
    <!-- Generator: Sketch 41.2 (35397) - http://www.bohemiancoding.com/sketch -->
    <title>Location 2</title>
    <desc>Created with Sketch.</desc>
    <defs></defs>
    <g id="Page-1" stroke="none" stroke-width="1" fill="none" fill-rule="evenodd">
        <g id="Location-2" fill="#000000">
            <rect id="Rectangle-path" x="0.1" y="52.2" width="42" height="3"></rect>
            <path d="M21.1,36.5 C11.5,36.5 3.6,28.5 3.6,18.7 C3.6,8.9 11.5,0.9 21.1,0.9 C30.7,0.9 38.6,8.9 38.6,18.7 C38.6,28.5 30.7,36.5 21.1,36.5 Z M21.1,3.9 C13.1,3.9 6.6,10.5 6.6,18.7 C6.6,26.9 13.1,33.5 21.1,33.5 C29.1,33.5 35.6,26.9 35.6,18.7 C35.6,10.5 29.1,3.9 21.1,3.9 Z" id="Shape"></path>
            <rect id="Rectangle-path" x="19.6" y="35.7" width="3" height="12.4"></rect>
        </g>
    </g>
</svg>